<svg version="1.1" xmlns="http://www.w3.org/2000/svg" xmlns:xlink="http://www.w3.org/1999/xlink" width="8.16939" height="8.16938" viewBox="0,0,8.16939,8.16938"><g transform="translate(-197.38827,-98.58198)"><g stroke-miterlimit="10"><path d="M197.38827,102.66667c0,-2.25591 1.82878,-4.08469 4.0847,-4.08469c2.25592,0 4.08469,1.82878 4.08469,4.08469c0,2.25592 -1.82877,4.08469 -4.08469,4.08469c-2.25592,0 -4.0847,-1.82878 -4.0847,-4.08469z" fill="#3a3a3a" stroke="none" stroke-width="0" stroke-linecap="butt"/><path d="M203.38391,104.7635v-3.84622" fill="none" stroke="#242424" stroke-width="1" stroke-linecap="round"/><path d="M199.54985,105.05536h3.84622" fill="none" stroke="#242424" stroke-width="1" stroke-linecap="round"/><path d="M199.48062,105.07298v-3.84622" fill="none" stroke="#242424" stroke-width="1" stroke-linecap="round"/><path d="M203.74899,100.74871h-4.6714" fill="none" stroke="#242424" stroke-width="1" stroke-linecap="round"/><path d="M200.71899,100.23542c0,-0.41421 0.33579,-0.75 0.75,-0.75c0.41421,0 0.75,0.33579 0.75,0.75c0,0.41421 -0.33579,0.75 -0.75,0.75c-0.41421,0 -0.75,-0.33579 -0.75,-0.75z" fill="#242424" stroke="none" stroke-width="0.5" stroke-linecap="butt"/><path d="M203.35811,102.06411c0,0 -1.18261,0.17372 -1.80226,0.17372c-0.65989,0 -2.04396,-0.17372 -2.04396,-0.17372" fill="none" stroke="#242424" stroke-width="1" stroke-linecap="round"/><path d="M203.32015,103.45936c0,0 -1.18262,0.17373 -1.80227,0.17373c-0.65989,0 -2.04395,-0.17373 -2.04395,-0.17373" fill="none" stroke="#242424" stroke-width="1" stroke-linecap="round"/></g></g></svg>