<svg version="1.1" xmlns="http://www.w3.org/2000/svg" xmlns:xlink="http://www.w3.org/1999/xlink" width="11.84906" height="14.66667" viewBox="0,0,11.84906,14.66667"><g transform="translate(-314.07547,-172.66667)"><g stroke-miterlimit="10"><path d="M314.57547,186.83333v-13.66667h10.84906v13.66667z" fill="#242424" stroke="#242424" stroke-width="1"/><path d="M314.55263,186.78947v-2.05263h2.67229v2.05263z" fill="#393939" stroke="none" stroke-width="0"/><path d="M318.66385,186.78948v-2.05264h2.67229v2.05264z" fill="#393939" stroke="none" stroke-width="0"/><path d="M322.77507,186.78948v-2.05264h2.67229v2.05264z" fill="#393939" stroke="none" stroke-width="0"/><path d="M314.55263,180.97369v-2.05264h2.67229v2.05264z" fill="#393939" stroke="none" stroke-width="0"/><path d="M318.66385,180.97369v-2.05264h2.67229v2.05264z" fill="#393939" stroke="none" stroke-width="0"/><path d="M322.77507,180.97369v-2.05264h2.67229v2.05264z" fill="#393939" stroke="none" stroke-width="0"/><path d="M314.55263,183.86842v-2.05264h2.67229v2.05264z" fill="#393939" stroke="none" stroke-width="0"/><path d="M318.66385,183.81579v-2.05264h2.67229v2.05264z" fill="#393939" stroke="none" stroke-width="0"/><path d="M322.77507,183.81579v-2.05264h2.67229v2.05264z" fill="#393939" stroke="none" stroke-width="0"/><path d="M314.55263,178.18421v-2.05264h2.67229v2.05264z" fill="#393939" stroke="none" stroke-width="0"/><path d="M318.66385,178.18421v-2.05264h2.67229v2.05264z" fill="#393939" stroke="none" stroke-width="0"/><path d="M322.77507,178.23684v-2.05264h2.67229v2.05264z" fill="#393939" stroke="none" stroke-width="0"/><path d="M314.55264,175.5v-2.05263h10.89473v2.05263z" fill="#676767" stroke="none" stroke-width="0"/></g></g></svg>