<svg version="1.1" xmlns="http://www.w3.org/2000/svg" xmlns:xlink="http://www.w3.org/1999/xlink" width="8.16939" height="8.16938" viewBox="0,0,8.16939,8.16938"><g transform="translate(-188.13753,-98.58198)"><g stroke-miterlimit="10"><path d="M188.13754,102.66668c0,-2.25591 1.82878,-4.08469 4.0847,-4.08469c2.25592,0 4.08469,1.82878 4.08469,4.08469c0,2.25592 -1.82877,4.08469 -4.08469,4.08469c-2.25592,0 -4.0847,-1.82878 -4.0847,-4.08469z" fill="#3a3a3a" stroke="none" stroke-width="0" stroke-linecap="butt"/><path d="" fill="none" stroke="#242424" stroke-width="1" stroke-linecap="round"/><path d="" fill="#242424" stroke="#242424" stroke-width="1" stroke-linecap="butt"/><path d="M192.70863,103.08229l2.00319,2.00317" fill="none" stroke="#191919" stroke-width="0.5" stroke-linecap="round"/><path d="M193.24651,102.43071c0.38537,0.38537 -1.01017,1.7809 -1.39554,1.39553c-0.38537,-0.38537 -0.38537,-1.01017 0,-1.39553c0.38537,-0.38537 1.01017,-0.38537 1.39554,0z" fill="#242424" stroke="#242424" stroke-width="1" stroke-linecap="butt"/><path d="M191.56254,102.31576l-0.65814,-0.65815" fill="none" stroke="#242424" stroke-width="1" stroke-linecap="round"/><path d="M190.68736,100.8534c0.21164,0.21164 -0.5548,0.97809 -0.76645,0.76645c-0.21164,-0.21164 -0.21165,-0.5548 0,-0.76645c0.21164,-0.21164 0.5548,-0.21164 0.76645,0z" fill="#242424" stroke="#242424" stroke-width="1" stroke-linecap="butt"/><path d="M190.83639,101.36163l1.59414,0.98101" fill="none" stroke="#242424" stroke-width="0.5" stroke-linecap="round"/><path d="M190.55026,101.89301l1.10364,1.30801" fill="none" stroke="#242424" stroke-width="0.5" stroke-linecap="round"/></g></g></svg>